<?xml version="1.0" encoding="UTF-8"?>
<svg id="_레이어_2" data-name="레이어 2" xmlns="http://www.w3.org/2000/svg" viewBox="0 0 712.33 142.19">
  <defs>
    <style>
      .cls-1 {
        fill: #707070;
      }

      .cls-2 {
        fill: #d60078;
      }
    </style>
  </defs>
  <g id="_레이어_1-2" data-name="레이어 1">
    <g>
      <g>
        <path class="cls-2" d="M65.22,27.63v71.75s-.23,13.55-5.27,18.14c-5.03,4.59-9.37,6.54-16.04,6.54s-11.01-1.95-16.04-6.54c-5.03-4.59-5.27-18.14-5.27-18.14V27.63H0v71.29c0,13.43,2.22,25.36,12.51,34.32,9.76,8.49,31.4,8.49,31.4,8.49,0,0,21.64,0,31.4-8.49,10.29-8.96,12.51-20.89,12.51-34.32V27.63h-22.6Z"/>
        <polygon class="cls-2" points="172.42 27.63 144.79 27.63 144.79 0 127.04 0 127.04 27.63 99.41 27.63 99.41 45.38 127.04 45.38 127.04 73.01 144.79 73.01 144.79 45.38 172.42 45.38 172.42 27.63"/>
      </g>
      <polygon class="cls-1" points="244.3 90.55 228.24 90.55 228.24 107.26 186.59 107.26 186.59 120.71 286.21 120.71 286.21 107.26 244.3 107.26 244.3 90.55"/>
      <path class="cls-1" d="M218.19,73.19c-6.18,3.83-14.45,6.83-24.81,9.01l4.57,12.66c8.88-1.13,16.62-3.33,23.24-6.59,6.61-3.26,11.66-6.9,15.14-10.9,3.39,4,8.4,7.64,15.01,10.9,6.61,3.26,14.4,5.46,23.37,6.59l4.57-12.66c-10.62-2.17-18.98-5.18-25.07-9.01-6.09-3.92-9.14-7.7-9.14-11.36v-.52h27.68v-12.92h-72.85v12.92h27.55v.52c0,3.66-3.09,7.44-9.27,11.36Z"/>
      <path class="cls-1" d="M332.1,72.27c1.78,2.09,3.72,4.14,5.81,6.14,2.09,2,4.31,3.85,6.66,5.55,2.35,1.7,4.7,3.07,7.05,4.11l8.49-11.75c-3.83-2.09-7.27-4.42-10.31-6.98-3.05-2.57-5.61-5.22-7.7-7.97-2.09-2.74-3.7-5.55-4.83-8.42-1.13-2.87-1.7-5.7-1.7-8.48v-.52h19.71v-13.19h-56.92v13.19h20.76v.52c0,2.87-.59,5.79-1.76,8.75-1.18,2.96-2.89,5.86-5.16,8.68-2.26,2.83-5.03,5.57-8.29,8.22-3.26,2.66-6.98,5.16-11.16,7.51l8.49,11.75c5.74-2.96,10.86-6.44,15.34-10.44,4.48-4,8.11-8.23,10.9-12.66,1.31,1.92,2.85,3.92,4.63,6Z"/>
      <path class="cls-1" d="M369.37,49.23h-18.41v13.84h18.41v26.37h14.32s2.13-7.71,2.13-19.33V25.08h-16.45v24.15Z"/>
      <rect class="cls-1" x="477.21" y="25.08" width="16.45" height="56.4"/>
      <path class="cls-1" d="M440.59,127.57c-.31-.31-.46-.94-.46-1.89v-3.79h51.4s2.13-7.71,2.13-19.33v-12.53h-69.2v13.32h53.01v6.01h-53.66v21.67c0,4.18.74,6.92,2.22,8.23,1.48,1.31,4.13,1.96,7.96,1.96h63.58v-13.19h-55.09c-.96,0-1.59-.15-1.89-.46Z"/>
      <path class="cls-1" d="M460.89,30.76h-54.83v39.82c0,4.18.74,6.92,2.22,8.22,1.48,1.31,4.13,1.96,7.96,1.96h44.65V30.76ZM444.57,67.45h-19.98c-.96,0-1.59-.15-1.89-.46-.3-.3-.46-.93-.46-1.89v-21.02h22.32v23.37Z"/>
      <g>
        <path class="cls-1" d="M539.81,65.16c-5.35,2-12.47,3.53-21.35,4.57l3.66,12.14c4-.35,7.9-.91,11.69-1.7,3.79-.78,7.31-1.74,10.57-2.87,3.26-1.13,6.22-2.39,8.88-3.79,2.65-1.39,4.9-2.87,6.72-4.44,3.48,3.13,8.57,5.88,15.27,8.23,6.7,2.35,14.23,3.87,22.59,4.57l3.66-12.14c-8.62-.96-15.62-2.48-21.02-4.57-5.4-2.09-9.01-4.31-10.84-6.66h25.46v-12.79h-70.37v12.79h25.46c-1.57,2.44-5.03,4.66-10.38,6.66Z"/>
        <path class="cls-1" d="M523.94,118.82h54.31v23.37h14.19s2.13-7.71,2.13-19.33v-17.1h-70.63v13.06Z"/>
        <rect class="cls-1" x="510.1" y="86.4" width="99.61" height="13.06"/>
      </g>
      <path class="cls-1" d="M684.46,45.64c-1.09-2.96-2.81-5.53-5.16-7.7-2.35-2.17-5.38-3.92-9.07-5.22-3.7-1.31-8.29-1.96-13.77-1.96s-10.05.65-13.71,1.96c-3.65,1.31-6.66,3.05-9.01,5.22-2.35,2.18-4.05,4.74-5.09,7.7-1.04,2.96-1.57,6.14-1.57,9.53s.52,6.72,1.57,9.73c1.04,3,2.74,5.59,5.09,7.77,2.35,2.18,5.35,3.88,9.01,5.09,3.66,1.22,8.23,1.83,13.71,1.83s10.07-.61,13.77-1.83c3.7-1.22,6.72-2.92,9.07-5.09,2.35-2.17,4.07-4.76,5.16-7.77,1.09-3,1.63-6.24,1.63-9.73s-.54-6.57-1.63-9.53ZM656.59,67.18c-8.79,0-13.19-4-13.19-12.01,0-3.74,1.09-6.66,3.26-8.75,2.18-2.09,5.48-3.13,9.92-3.13s7.75,1.04,9.92,3.13c2.17,2.09,3.26,5,3.26,8.75,0,8.01-4.4,12.01-13.19,12.01Z"/>
      <path class="cls-1" d="M696.01,25.08v55.96c-4.44,2.35-9.38,3.83-14.82,4.44-5.44.61-10.64.91-15.6.91h-46.35v13.32h29.51v35.64h14.19s2.13-7.71,2.13-19.33v-16.32h3.4c4.44,0,9.09-.35,13.97-1.04,4.87-.7,9.4-2.09,13.58-4.18v43.87h14.19s2.13-7.71,2.13-19.33V25.08h-16.32Z"/>
      <path class="cls-1" d="M373.48,100.54c-2.35-2.17-5.38-3.92-9.07-5.22-3.7-1.31-8.29-1.96-13.77-1.96s-10.05.65-13.71,1.96c-3.65,1.31-6.66,3.05-9.01,5.22-2.35,2.18-4.05,4.74-5.09,7.7-1.04,2.96-1.57,6.14-1.57,9.53s.52,6.72,1.57,9.73c1.04,3,2.74,5.59,5.09,7.77,2.35,2.18,5.35,3.88,9.01,5.09,3.66,1.22,8.23,1.83,13.71,1.83s10.07-.61,13.77-1.83c3.7-1.22,6.72-2.92,9.07-5.09,2.35-2.17,4.07-4.76,5.16-7.77,1.09-3,1.63-6.24,1.63-9.73s-.54-6.57-1.63-9.53c-1.09-2.96-2.81-5.53-5.16-7.7ZM350.77,129.79c-8.79,0-13.19-4-13.19-12.01,0-3.74,1.09-6.66,3.26-8.75,2.18-2.09,5.48-3.13,9.92-3.13s7.75,1.04,9.92,3.13c2.17,2.09,3.26,5,3.26,8.75,0,8.01-4.4,12.01-13.19,12.01Z"/>
      <path class="cls-1" d="M256.57,41.86v-13.05h-17.02c-11.55,0-21.21-4.12-21.21-4.12l-2.25,14.17c4.9,2.39,19.88,3,19.88,3h20.6Z"/>
      <path class="cls-1" d="M579.95,41.86v-13.05h-17.02c-11.55,0-21.21-4.12-21.21-4.12l-2.25,14.17c4.9,2.39,19.88,3,19.88,3h20.6Z"/>
    </g>
  </g>
</svg>